<?xml version="1.0" encoding="UTF-8"?>
<svg width="512px" height="512px" viewBox="0 0 512 512" version="1.1" xmlns="http://www.w3.org/2000/svg" xmlns:xlink="http://www.w3.org/1999/xlink">
    <title>apit@1x</title>
    <g id="apit" stroke="none" stroke-width="1" fill="none" fill-rule="evenodd">
        <rect fill="#FFFFFF" x="0" y="0" width="512" height="512"></rect>
        <g id="Group" transform="translate(16.149567, 63.664417)">
            <path d="M429.944295,0 L429.882746,295.929416 L336.112254,384 L109.944295,383.736116 L109.944295,0 L429.944295,0 Z M414.444295,19 L126.444295,19 L126.444295,364.362505 L329.995458,364.6 L414.388901,285.336474 L414.444295,19 Z" id="Combined-Shape" fill="#000000"></path>
            <path d="M106.596062,89.900213 C193.271308,68.2896468 239.978533,110.922989 251.201754,155.93687 C262.424975,200.95075 233.914187,231.299329 147.23894,252.909895 C60.5636931,274.520461 13.5349506,269.167282 2.31172963,224.153402 C-8.91149135,179.139521 19.9208147,111.510779 106.596062,89.900213 Z M154.850433,97.3355828 C146.013877,97.3355828 138.850433,104.499027 138.850433,113.335583 C138.850433,122.172139 146.013877,129.335583 154.850433,129.335583 C163.686989,129.335583 170.850433,122.172139 170.850433,113.335583 C170.850433,104.499027 163.686989,97.3355828 154.850433,97.3355828 Z" id="Combined-Shape" fill="#000000"></path>
            <path d="M9.22506431,177.143786 C46.0823635,128.904086 83.2106722,105.597265 120.60999,107.223322 C121.423019,107.223322 135.244506,121.044809 116.544847,128.362067 C98.1161976,126.193991 62.3429366,142.454564 9.22506431,177.143786 Z" id="Path-4" fill="#FFFFFF" transform="translate(67.756651, 142.143786) rotate(-3.000000) translate(-67.756651, -142.143786) "></path>
        </g>
    </g>
</svg>