<?xml version="1.0" encoding="UTF-8"?>
<svg width="512px" height="512px" viewBox="0 0 512 512" version="1.1" xmlns="http://www.w3.org/2000/svg" xmlns:xlink="http://www.w3.org/1999/xlink">
    <title>settings@1x</title>
    <g id="settings" stroke="none" stroke-width="1" fill="none" fill-rule="evenodd">
        <rect fill="#FFFFFF" x="0" y="0" width="512" height="512"></rect>
        <g id="Group" transform="translate(71.000000, 63.664417)" fill="#000000">
            <path d="M375.093863,0 L375.032313,295.929416 L281.261822,384 L55.0938628,383.736116 L55.0938628,0 L375.093863,0 Z M359.593863,19 L71.5938628,19 L71.5938628,364.362505 L275.145026,364.6 L359.538468,285.336474 L359.593863,19 Z" id="Combined-Shape"></path>
            <path d="M154,158.335583 L154,191.148583 L177.488047,167.660682 L185.973329,176.145963 L161.783,200.335583 L196,200.335583 L196,212.335583 L162.862,212.335583 L186.303381,235.776777 L177.8181,244.262059 L154,220.443583 L154,254.335583 L142,254.335583 L142,220.118583 L118.091078,244.028214 L109.605796,235.542933 L132.812,212.335583 L100,212.335583 L100,200.335583 L133.891,200.335583 L109.935849,176.379808 L118.42113,167.894526 L142,191.472583 L142,158.335583 L154,158.335583 Z" id="Combined-Shape"></path>
            <path d="M72,59.3355828 L72,103.085583 L103.317396,71.7690485 L114.631105,83.082757 L82.379,115.334583 L128,115.335583 L128,131.335583 L83.817,131.335583 L115.071175,162.590509 L103.757466,173.904217 L72,142.146583 L72,187.335583 L56,187.335583 L56,141.712583 L24.1214367,173.592425 L12.8077282,162.278716 L43.75,131.335583 L0,131.335583 L0,115.335583 L45.189,115.335583 L13.2477984,83.3945494 L24.5615069,72.0808409 L56,103.519583 L56,59.3355828 L72,59.3355828 Z" id="Combined-Shape-Copy"></path>
        </g>
    </g>
</svg>